<mxfile host="app.diagrams.net" modified="2021-09-24T12:16:18.096Z" agent="5.0 (Windows NT 10.0; Win64; x64) AppleWebKit/537.36 (KHTML, like Gecko) Chrome/93.0.4577.82 Safari/537.36" etag="wdxGQVeE08aXTxm--5tb" version="15.3.1" type="github">
  <diagram name="Page-1" id="64c3da0e-402f-94eb-ee01-a36477274f13">
    <mxGraphModel dx="3683" dy="1094" grid="1" gridSize="10" guides="1" tooltips="1" connect="1" arrows="1" fold="1" page="1" pageScale="1" pageWidth="1169" pageHeight="826" background="none" math="0" shadow="0">
      <root>
        <mxCell id="0" />
        <mxCell id="1" parent="0" />
        <mxCell id="2" value="ACalendar" style="whiteSpace=wrap;rounded=1;shadow=1;fillColor=#10739E;strokeColor=none;fontColor=#FFFFFF;fontStyle=1;fontSize=24" parent="1" vertex="1">
          <mxGeometry x="1000" y="50" width="340" height="60" as="geometry" />
        </mxCell>
        <mxCell id="3" value="User access" style="whiteSpace=wrap;rounded=1;fillColor=#F2931E;strokeColor=none;shadow=1;fontColor=#FFFFFF;fontStyle=1;fontSize=14" parent="1" vertex="1">
          <mxGeometry x="100" y="169.9999999999998" width="140" height="60" as="geometry" />
        </mxCell>
        <mxCell id="4" value="API" style="whiteSpace=wrap;rounded=1;fillColor=#F2931E;strokeColor=none;shadow=1;fontColor=#FFFFFF;fontStyle=1;fontSize=14" parent="1" vertex="1">
          <mxGeometry x="650" y="169.9999999999998" width="140" height="60" as="geometry" />
        </mxCell>
        <mxCell id="6" value="Notifications" style="whiteSpace=wrap;rounded=1;fillColor=#F2931E;strokeColor=none;shadow=1;fontColor=#FFFFFF;fontStyle=1;fontSize=14" parent="1" vertex="1">
          <mxGeometry x="2230" y="169.9999999999998" width="140" height="60" as="geometry" />
        </mxCell>
        <mxCell id="7" value="Event view" style="whiteSpace=wrap;rounded=1;fillColor=#F2931E;strokeColor=none;shadow=1;fontColor=#FFFFFF;fontStyle=1;fontSize=14" parent="1" vertex="1">
          <mxGeometry x="1540" y="169.9999999999998" width="140" height="60" as="geometry" />
        </mxCell>
        <mxCell id="10" value="Registration" style="whiteSpace=wrap;rounded=1;fillColor=#12AAB5;strokeColor=none;shadow=1;fontColor=#FFFFFF;" parent="1" vertex="1">
          <mxGeometry x="10" y="300.0000000000001" width="120" height="60" as="geometry" />
        </mxCell>
        <mxCell id="nAfZ405JJpA0r1wolxKX-299" value="" style="edgeStyle=orthogonalEdgeStyle;rounded=0;orthogonalLoop=1;jettySize=auto;html=1;" edge="1" parent="1" source="12" target="3">
          <mxGeometry relative="1" as="geometry" />
        </mxCell>
        <mxCell id="12" value="Login" style="whiteSpace=wrap;rounded=1;fillColor=#12AAB5;strokeColor=none;shadow=1;fontColor=#FFFFFF;" parent="1" vertex="1">
          <mxGeometry x="210" y="300.0000000000001" width="120" height="60" as="geometry" />
        </mxCell>
        <mxCell id="24" value="Validation" style="whiteSpace=wrap;rounded=1;fillColor=#999999;strokeColor=none;shadow=1;fontColor=#FFFFFF;fontStyle=0" parent="1" vertex="1">
          <mxGeometry x="10" y="380" width="120" height="63" as="geometry" />
        </mxCell>
        <mxCell id="38" value="Validation" style="whiteSpace=wrap;rounded=1;fillColor=#999999;strokeColor=none;shadow=1;fontColor=#FFFFFF;fontStyle=0" parent="1" vertex="1">
          <mxGeometry x="209.9999999999996" y="383.0000000000001" width="120" height="60" as="geometry" />
        </mxCell>
        <mxCell id="43" value="Users" style="whiteSpace=wrap;rounded=1;fillColor=#12AAB5;strokeColor=none;shadow=1;fontColor=#FFFFFF;" parent="1" vertex="1">
          <mxGeometry x="559.9999999999998" y="300.0000000000001" width="120" height="60" as="geometry" />
        </mxCell>
        <mxCell id="44" value="Events" style="whiteSpace=wrap;rounded=1;fillColor=#12AAB5;strokeColor=none;shadow=1;fontColor=#FFFFFF;" parent="1" vertex="1">
          <mxGeometry x="759.9999999999998" y="300.0000000000001" width="120" height="60" as="geometry" />
        </mxCell>
        <mxCell id="45" value="Create" style="whiteSpace=wrap;rounded=1;fillColor=#999999;strokeColor=none;shadow=1;fontColor=#FFFFFF;fontStyle=0" parent="1" vertex="1">
          <mxGeometry x="559.9999999999998" y="389.0000000000001" width="120" height="60" as="geometry" />
        </mxCell>
        <mxCell id="46" value="Read" style="whiteSpace=wrap;rounded=1;fillColor=#999999;strokeColor=none;shadow=1;fontColor=#FFFFFF;fontStyle=0" parent="1" vertex="1">
          <mxGeometry x="559.9999999999999" y="480.0000000000001" width="120" height="60" as="geometry" />
        </mxCell>
        <mxCell id="50" value="Create" style="whiteSpace=wrap;rounded=1;fillColor=#999999;strokeColor=none;shadow=1;fontColor=#FFFFFF;fontStyle=0" parent="1" vertex="1">
          <mxGeometry x="759.9999999999993" y="391.0000000000001" width="120" height="60" as="geometry" />
        </mxCell>
        <mxCell id="51" value="Read" style="whiteSpace=wrap;rounded=1;fillColor=#999999;strokeColor=none;shadow=1;fontColor=#FFFFFF;fontStyle=0" parent="1" vertex="1">
          <mxGeometry x="759.9999999999995" y="480.0000000000001" width="120" height="60" as="geometry" />
        </mxCell>
        <mxCell id="52" value="Update" style="whiteSpace=wrap;rounded=1;fillColor=#999999;strokeColor=none;shadow=1;fontColor=#FFFFFF;fontStyle=0" parent="1" vertex="1">
          <mxGeometry x="759.9999999999995" y="560.0000000000001" width="120" height="60" as="geometry" />
        </mxCell>
        <mxCell id="53" value="Delete" style="whiteSpace=wrap;rounded=1;fillColor=#999999;strokeColor=none;shadow=1;fontColor=#FFFFFF;fontStyle=0" parent="1" vertex="1">
          <mxGeometry x="759.9999999999997" y="640.0000000000001" width="120" height="60" as="geometry" />
        </mxCell>
        <mxCell id="103" value="" style="edgeStyle=elbowEdgeStyle;elbow=vertical;rounded=0;fontColor=#000000;endArrow=none;endFill=0;strokeWidth=8;strokeColor=#23445D;" parent="1" source="3" target="10" edge="1">
          <mxGeometry width="100" height="100" relative="1" as="geometry">
            <mxPoint x="-40" y="290" as="sourcePoint" />
            <mxPoint x="60" y="190" as="targetPoint" />
          </mxGeometry>
        </mxCell>
        <mxCell id="104" value="" style="edgeStyle=elbowEdgeStyle;elbow=vertical;rounded=0;fontColor=#000000;endArrow=none;endFill=0;strokeWidth=8;strokeColor=#23445D;" parent="1" source="3" target="12" edge="1">
          <mxGeometry width="100" height="100" relative="1" as="geometry">
            <mxPoint x="300" y="290" as="sourcePoint" />
            <mxPoint x="400" y="190" as="targetPoint" />
          </mxGeometry>
        </mxCell>
        <mxCell id="106" value="" style="edgeStyle=elbowEdgeStyle;elbow=horizontal;rounded=0;fontColor=#000000;endArrow=none;endFill=0;strokeWidth=8;strokeColor=#23445D;" parent="1" source="10" target="24" edge="1">
          <mxGeometry width="100" height="100" relative="1" as="geometry">
            <mxPoint x="20" y="340" as="sourcePoint" />
            <mxPoint x="20" y="440" as="targetPoint" />
            <Array as="points">
              <mxPoint x="-10" y="413" />
              <mxPoint x="-10" y="420" />
              <mxPoint x="-10" y="400" />
            </Array>
          </mxGeometry>
        </mxCell>
        <mxCell id="111" value="" style="edgeStyle=elbowEdgeStyle;elbow=horizontal;rounded=0;fontColor=#000000;endArrow=none;endFill=0;strokeWidth=8;strokeColor=#23445D;exitX=0;exitY=0.5;exitDx=0;exitDy=0;" parent="1" target="38" edge="1" source="12">
          <mxGeometry width="100" height="100" relative="1" as="geometry">
            <mxPoint x="200" y="330.0000000000004" as="sourcePoint" />
            <mxPoint x="200" y="430.0000000000004" as="targetPoint" />
            <Array as="points">
              <mxPoint x="190" y="380" />
            </Array>
          </mxGeometry>
        </mxCell>
        <mxCell id="116" value="" style="edgeStyle=elbowEdgeStyle;elbow=vertical;rounded=0;fontColor=#000000;endArrow=none;endFill=0;strokeWidth=8;strokeColor=#23445D;" parent="1" source="4" target="43" edge="1">
          <mxGeometry width="100" height="100" relative="1" as="geometry">
            <mxPoint x="360" y="239.99999999999977" as="sourcePoint" />
            <mxPoint x="260" y="310" as="targetPoint" />
          </mxGeometry>
        </mxCell>
        <mxCell id="117" value="" style="edgeStyle=elbowEdgeStyle;elbow=vertical;rounded=0;fontColor=#000000;endArrow=none;endFill=0;strokeWidth=8;strokeColor=#23445D;" parent="1" source="4" target="44" edge="1">
          <mxGeometry width="100" height="100" relative="1" as="geometry">
            <mxPoint x="360" y="239.99999999999977" as="sourcePoint" />
            <mxPoint x="460" y="310" as="targetPoint" />
          </mxGeometry>
        </mxCell>
        <mxCell id="118" value="" style="edgeStyle=elbowEdgeStyle;elbow=horizontal;rounded=0;fontColor=#000000;endArrow=none;endFill=0;strokeWidth=8;strokeColor=#23445D;" parent="1" source="43" target="45" edge="1">
          <mxGeometry width="100" height="100" relative="1" as="geometry">
            <mxPoint x="540" y="330.00000000000045" as="sourcePoint" />
            <mxPoint x="549.9999999999995" y="430" as="targetPoint" />
            <Array as="points">
              <mxPoint x="540" y="380" />
            </Array>
          </mxGeometry>
        </mxCell>
        <mxCell id="119" value="" style="edgeStyle=elbowEdgeStyle;elbow=horizontal;rounded=0;fontColor=#000000;endArrow=none;endFill=0;strokeWidth=8;strokeColor=#23445D;" parent="1" source="43" target="46" edge="1">
          <mxGeometry width="100" height="100" relative="1" as="geometry">
            <mxPoint x="550" y="330" as="sourcePoint" />
            <mxPoint x="549.9999999999998" y="510" as="targetPoint" />
            <Array as="points">
              <mxPoint x="540" y="420" />
            </Array>
          </mxGeometry>
        </mxCell>
        <mxCell id="123" value="" style="edgeStyle=elbowEdgeStyle;elbow=horizontal;rounded=0;fontColor=#000000;endArrow=none;endFill=0;strokeWidth=8;strokeColor=#23445D;" parent="1" source="44" target="50" edge="1">
          <mxGeometry width="100" height="100" relative="1" as="geometry">
            <mxPoint x="730" y="330.00000000000045" as="sourcePoint" />
            <mxPoint x="739.9999999999995" y="430" as="targetPoint" />
            <Array as="points">
              <mxPoint x="740" y="380" />
            </Array>
          </mxGeometry>
        </mxCell>
        <mxCell id="124" value="" style="edgeStyle=elbowEdgeStyle;elbow=horizontal;rounded=0;fontColor=#000000;endArrow=none;endFill=0;strokeWidth=8;strokeColor=#23445D;" parent="1" source="44" target="51" edge="1">
          <mxGeometry width="100" height="100" relative="1" as="geometry">
            <mxPoint x="740" y="330" as="sourcePoint" />
            <mxPoint x="739.9999999999998" y="510" as="targetPoint" />
            <Array as="points">
              <mxPoint x="740" y="420" />
            </Array>
          </mxGeometry>
        </mxCell>
        <mxCell id="126" value="" style="edgeStyle=elbowEdgeStyle;elbow=horizontal;rounded=0;fontColor=#000000;endArrow=none;endFill=0;strokeWidth=8;strokeColor=#23445D;" parent="1" source="44" target="53" edge="1">
          <mxGeometry width="100" height="100" relative="1" as="geometry">
            <mxPoint x="740" y="330" as="sourcePoint" />
            <mxPoint x="740" y="670" as="targetPoint" />
            <Array as="points">
              <mxPoint x="740" y="500" />
            </Array>
          </mxGeometry>
        </mxCell>
        <mxCell id="127" value="" style="edgeStyle=elbowEdgeStyle;elbow=horizontal;rounded=0;fontColor=#000000;endArrow=none;endFill=0;strokeWidth=8;strokeColor=#23445D;" parent="1" source="44" target="52" edge="1">
          <mxGeometry width="100" height="100" relative="1" as="geometry">
            <mxPoint x="740" y="330" as="sourcePoint" />
            <mxPoint x="739.9999999999998" y="590" as="targetPoint" />
            <Array as="points">
              <mxPoint x="740" y="470" />
            </Array>
          </mxGeometry>
        </mxCell>
        <mxCell id="155" value="Monthly" style="whiteSpace=wrap;rounded=1;fillColor=#12AAB5;strokeColor=none;shadow=1;fontColor=#FFFFFF;" parent="1" vertex="1">
          <mxGeometry x="1259.9999999999998" y="300.0000000000002" width="120" height="60" as="geometry" />
        </mxCell>
        <mxCell id="156" value="Detailed" style="whiteSpace=wrap;rounded=1;fillColor=#12AAB5;strokeColor=none;shadow=1;fontColor=#FFFFFF;" parent="1" vertex="1">
          <mxGeometry x="1459.9999999999998" y="300.0000000000002" width="120" height="60" as="geometry" />
        </mxCell>
        <mxCell id="157" value="Mark significant&#xa; days" style="whiteSpace=wrap;rounded=1;fillColor=#999999;strokeColor=none;shadow=1;fontColor=#FFFFFF;fontStyle=0" parent="1" vertex="1">
          <mxGeometry x="1259.9999999999998" y="400.0000000000002" width="120" height="60" as="geometry" />
        </mxCell>
        <mxCell id="158" value="Add" style="whiteSpace=wrap;rounded=1;fillColor=#999999;strokeColor=none;shadow=1;fontColor=#FFFFFF;fontStyle=0" parent="1" vertex="1">
          <mxGeometry x="1260" y="480.0000000000002" width="120" height="60" as="geometry" />
        </mxCell>
        <mxCell id="159" value="Edit" style="whiteSpace=wrap;rounded=1;fillColor=#999999;strokeColor=none;shadow=1;fontColor=#FFFFFF;fontStyle=0" parent="1" vertex="1">
          <mxGeometry x="1259.9999999999998" y="560.0000000000002" width="120" height="60" as="geometry" />
        </mxCell>
        <mxCell id="160" value="Remove" style="whiteSpace=wrap;rounded=1;fillColor=#999999;strokeColor=none;shadow=1;fontColor=#FFFFFF;fontStyle=0" parent="1" vertex="1">
          <mxGeometry x="1260" y="640.0000000000002" width="120" height="60" as="geometry" />
        </mxCell>
        <mxCell id="161" value="Jump to detailed &#xa;view" style="whiteSpace=wrap;rounded=1;fillColor=#999999;strokeColor=none;shadow=1;fontColor=#FFFFFF;fontStyle=0" parent="1" vertex="1">
          <mxGeometry x="1260" y="720.0000000000002" width="120" height="60" as="geometry" />
        </mxCell>
        <mxCell id="162" value="Read details" style="whiteSpace=wrap;rounded=1;fillColor=#999999;strokeColor=none;shadow=1;fontColor=#FFFFFF;fontStyle=0" parent="1" vertex="1">
          <mxGeometry x="1459.9999999999993" y="400.0000000000002" width="120" height="60" as="geometry" />
        </mxCell>
        <mxCell id="163" value="Edit details" style="whiteSpace=wrap;rounded=1;fillColor=#999999;strokeColor=none;shadow=1;fontColor=#FFFFFF;fontStyle=0" parent="1" vertex="1">
          <mxGeometry x="1459.9999999999995" y="480.0000000000002" width="120" height="60" as="geometry" />
        </mxCell>
        <mxCell id="164" value="Set notification" style="whiteSpace=wrap;rounded=1;fillColor=#999999;strokeColor=none;shadow=1;fontColor=#FFFFFF;fontStyle=0" parent="1" vertex="1">
          <mxGeometry x="1459.9999999999995" y="560.0000000000002" width="120" height="60" as="geometry" />
        </mxCell>
        <mxCell id="165" value="Edit priority" style="whiteSpace=wrap;rounded=1;fillColor=#999999;strokeColor=none;shadow=1;fontColor=#FFFFFF;fontStyle=0" parent="1" vertex="1">
          <mxGeometry x="1459.9999999999995" y="640.0000000000002" width="120" height="60" as="geometry" />
        </mxCell>
        <mxCell id="166" value="Delete" style="whiteSpace=wrap;rounded=1;fillColor=#999999;strokeColor=none;shadow=1;fontColor=#FFFFFF;fontStyle=0" parent="1" vertex="1">
          <mxGeometry x="1459.9999999999998" y="720.0000000000002" width="120" height="60" as="geometry" />
        </mxCell>
        <mxCell id="167" value="" style="edgeStyle=elbowEdgeStyle;elbow=horizontal;rounded=0;fontColor=#000000;endArrow=none;endFill=0;strokeWidth=8;strokeColor=#23445D;" parent="1" source="155" target="157" edge="1">
          <mxGeometry width="100" height="100" relative="1" as="geometry">
            <mxPoint x="1240" y="330.00000000000057" as="sourcePoint" />
            <mxPoint x="1249.9999999999995" y="430.0000000000001" as="targetPoint" />
            <Array as="points">
              <mxPoint x="1240" y="380.0000000000001" />
            </Array>
          </mxGeometry>
        </mxCell>
        <mxCell id="168" value="" style="edgeStyle=elbowEdgeStyle;elbow=horizontal;rounded=0;fontColor=#000000;endArrow=none;endFill=0;strokeWidth=8;strokeColor=#23445D;" parent="1" source="155" target="158" edge="1">
          <mxGeometry width="100" height="100" relative="1" as="geometry">
            <mxPoint x="1250" y="330.0000000000001" as="sourcePoint" />
            <mxPoint x="1249.9999999999998" y="510.0000000000001" as="targetPoint" />
            <Array as="points">
              <mxPoint x="1240" y="420.0000000000001" />
            </Array>
          </mxGeometry>
        </mxCell>
        <mxCell id="169" value="" style="edgeStyle=elbowEdgeStyle;elbow=horizontal;rounded=0;fontColor=#000000;endArrow=none;endFill=0;strokeWidth=8;strokeColor=#23445D;" parent="1" source="155" target="161" edge="1">
          <mxGeometry width="100" height="100" relative="1" as="geometry">
            <mxPoint x="1250" y="330.0000000000001" as="sourcePoint" />
            <mxPoint x="1250" y="750.0000000000001" as="targetPoint" />
            <Array as="points">
              <mxPoint x="1240" y="550.0000000000001" />
            </Array>
          </mxGeometry>
        </mxCell>
        <mxCell id="170" value="" style="edgeStyle=elbowEdgeStyle;elbow=horizontal;rounded=0;fontColor=#000000;endArrow=none;endFill=0;strokeWidth=8;strokeColor=#23445D;" parent="1" source="155" target="160" edge="1">
          <mxGeometry width="100" height="100" relative="1" as="geometry">
            <mxPoint x="1250" y="330.0000000000001" as="sourcePoint" />
            <mxPoint x="1250" y="670.0000000000001" as="targetPoint" />
            <Array as="points">
              <mxPoint x="1240" y="500.0000000000001" />
            </Array>
          </mxGeometry>
        </mxCell>
        <mxCell id="171" value="" style="edgeStyle=elbowEdgeStyle;elbow=horizontal;rounded=0;fontColor=#000000;endArrow=none;endFill=0;strokeWidth=8;strokeColor=#23445D;" parent="1" source="155" target="159" edge="1">
          <mxGeometry width="100" height="100" relative="1" as="geometry">
            <mxPoint x="1250" y="330.0000000000001" as="sourcePoint" />
            <mxPoint x="1249.9999999999998" y="590.0000000000001" as="targetPoint" />
            <Array as="points">
              <mxPoint x="1240" y="470.0000000000001" />
            </Array>
          </mxGeometry>
        </mxCell>
        <mxCell id="172" value="" style="edgeStyle=elbowEdgeStyle;elbow=horizontal;rounded=0;fontColor=#000000;endArrow=none;endFill=0;strokeWidth=8;strokeColor=#23445D;" parent="1" source="156" target="162" edge="1">
          <mxGeometry width="100" height="100" relative="1" as="geometry">
            <mxPoint x="1430" y="330.00000000000057" as="sourcePoint" />
            <mxPoint x="1439.9999999999995" y="430.0000000000001" as="targetPoint" />
            <Array as="points">
              <mxPoint x="1440" y="380.0000000000001" />
            </Array>
          </mxGeometry>
        </mxCell>
        <mxCell id="173" value="" style="edgeStyle=elbowEdgeStyle;elbow=horizontal;rounded=0;fontColor=#000000;endArrow=none;endFill=0;strokeWidth=8;strokeColor=#23445D;" parent="1" source="156" target="163" edge="1">
          <mxGeometry width="100" height="100" relative="1" as="geometry">
            <mxPoint x="1440" y="330.0000000000001" as="sourcePoint" />
            <mxPoint x="1439.9999999999998" y="510.0000000000001" as="targetPoint" />
            <Array as="points">
              <mxPoint x="1440" y="420.0000000000001" />
            </Array>
          </mxGeometry>
        </mxCell>
        <mxCell id="174" value="" style="edgeStyle=elbowEdgeStyle;elbow=horizontal;rounded=0;fontColor=#000000;endArrow=none;endFill=0;strokeWidth=8;strokeColor=#23445D;" parent="1" source="156" target="166" edge="1">
          <mxGeometry width="100" height="100" relative="1" as="geometry">
            <mxPoint x="1440" y="330.0000000000001" as="sourcePoint" />
            <mxPoint x="1440" y="750.0000000000001" as="targetPoint" />
            <Array as="points">
              <mxPoint x="1440" y="540.0000000000001" />
            </Array>
          </mxGeometry>
        </mxCell>
        <mxCell id="175" value="" style="edgeStyle=elbowEdgeStyle;elbow=horizontal;rounded=0;fontColor=#000000;endArrow=none;endFill=0;strokeWidth=8;strokeColor=#23445D;" parent="1" source="156" target="165" edge="1">
          <mxGeometry width="100" height="100" relative="1" as="geometry">
            <mxPoint x="1440" y="330.0000000000001" as="sourcePoint" />
            <mxPoint x="1440" y="670.0000000000001" as="targetPoint" />
            <Array as="points">
              <mxPoint x="1440" y="500.0000000000001" />
            </Array>
          </mxGeometry>
        </mxCell>
        <mxCell id="176" value="" style="edgeStyle=elbowEdgeStyle;elbow=horizontal;rounded=0;fontColor=#000000;endArrow=none;endFill=0;strokeWidth=8;strokeColor=#23445D;" parent="1" source="156" target="164" edge="1">
          <mxGeometry width="100" height="100" relative="1" as="geometry">
            <mxPoint x="1440" y="330.0000000000001" as="sourcePoint" />
            <mxPoint x="1439.9999999999998" y="590.0000000000001" as="targetPoint" />
            <Array as="points">
              <mxPoint x="1440" y="470.0000000000001" />
            </Array>
          </mxGeometry>
        </mxCell>
        <mxCell id="223" value="" style="edgeStyle=elbowEdgeStyle;elbow=vertical;rounded=0;fontColor=#000000;endArrow=none;endFill=0;strokeWidth=8;strokeColor=#23445D;" parent="1" source="7" target="155" edge="1">
          <mxGeometry width="100" height="100" relative="1" as="geometry">
            <mxPoint x="1420" y="300" as="sourcePoint" />
            <mxPoint x="1320" y="190" as="targetPoint" />
          </mxGeometry>
        </mxCell>
        <mxCell id="224" value="" style="edgeStyle=elbowEdgeStyle;elbow=vertical;rounded=0;fontColor=#000000;endArrow=none;endFill=0;strokeWidth=8;strokeColor=#23445D;" parent="1" source="7" target="156" edge="1">
          <mxGeometry width="100" height="100" relative="1" as="geometry">
            <mxPoint x="1510" y="290" as="sourcePoint" />
            <mxPoint x="1610" y="190" as="targetPoint" />
          </mxGeometry>
        </mxCell>
        <mxCell id="229" value="" style="edgeStyle=elbowEdgeStyle;elbow=vertical;rounded=0;fontColor=#000000;endArrow=none;endFill=0;strokeWidth=8;strokeColor=#23445D;" parent="1" source="2" target="3" edge="1">
          <mxGeometry width="100" height="100" relative="1" as="geometry">
            <mxPoint x="540" y="140" as="sourcePoint" />
            <mxPoint x="640" y="40" as="targetPoint" />
          </mxGeometry>
        </mxCell>
        <mxCell id="230" value="" style="edgeStyle=elbowEdgeStyle;elbow=vertical;rounded=0;fontColor=#000000;endArrow=none;endFill=0;strokeWidth=8;strokeColor=#23445D;" parent="1" source="2" target="4" edge="1">
          <mxGeometry width="100" height="100" relative="1" as="geometry">
            <mxPoint x="550" y="150" as="sourcePoint" />
            <mxPoint x="650" y="50" as="targetPoint" />
          </mxGeometry>
        </mxCell>
        <mxCell id="231" value="" style="edgeStyle=elbowEdgeStyle;elbow=vertical;rounded=0;fontColor=#000000;endArrow=none;endFill=0;strokeWidth=8;strokeColor=#23445D;" parent="1" source="2" target="6" edge="1">
          <mxGeometry width="100" height="100" relative="1" as="geometry">
            <mxPoint x="560" y="160" as="sourcePoint" />
            <mxPoint x="660" y="60" as="targetPoint" />
          </mxGeometry>
        </mxCell>
        <mxCell id="232" value="0" style="edgeStyle=elbowEdgeStyle;elbow=vertical;rounded=0;fontColor=#000000;endArrow=none;endFill=0;strokeWidth=8;strokeColor=#23445D;" parent="1" source="2" target="7" edge="1">
          <mxGeometry width="100" height="100" relative="1" as="geometry">
            <mxPoint x="570" y="170" as="sourcePoint" />
            <mxPoint x="670" y="70" as="targetPoint" />
          </mxGeometry>
        </mxCell>
        <mxCell id="nAfZ405JJpA0r1wolxKX-248" value="Database" style="whiteSpace=wrap;rounded=1;fillColor=#12AAB5;strokeColor=none;shadow=1;fontColor=#FFFFFF;" vertex="1" parent="1">
          <mxGeometry x="1089.9999999999998" y="300.0000000000001" width="120" height="60" as="geometry" />
        </mxCell>
        <mxCell id="nAfZ405JJpA0r1wolxKX-250" value="" style="edgeStyle=elbowEdgeStyle;elbow=horizontal;rounded=0;fontColor=#000000;endArrow=none;endFill=0;strokeWidth=8;strokeColor=#23445D;" edge="1" source="nAfZ405JJpA0r1wolxKX-260" target="nAfZ405JJpA0r1wolxKX-259" parent="1">
          <mxGeometry width="100" height="100" relative="1" as="geometry">
            <mxPoint x="1630" y="330.00000000000057" as="sourcePoint" />
            <mxPoint x="1639.9999999999995" y="430.0000000000001" as="targetPoint" />
            <Array as="points">
              <mxPoint x="1630" y="380.0000000000001" />
            </Array>
          </mxGeometry>
        </mxCell>
        <mxCell id="nAfZ405JJpA0r1wolxKX-251" value="" style="edgeStyle=elbowEdgeStyle;elbow=horizontal;rounded=0;fontColor=#000000;endArrow=none;endFill=0;strokeWidth=8;strokeColor=#23445D;" edge="1" source="nAfZ405JJpA0r1wolxKX-260" target="nAfZ405JJpA0r1wolxKX-258" parent="1">
          <mxGeometry width="100" height="100" relative="1" as="geometry">
            <mxPoint x="1640" y="330.0000000000001" as="sourcePoint" />
            <mxPoint x="1639.9999999999998" y="510" as="targetPoint" />
            <Array as="points">
              <mxPoint x="1630" y="420.0000000000001" />
            </Array>
          </mxGeometry>
        </mxCell>
        <mxCell id="nAfZ405JJpA0r1wolxKX-252" value="" style="edgeStyle=elbowEdgeStyle;elbow=horizontal;rounded=0;fontColor=#000000;endArrow=none;endFill=0;strokeWidth=8;strokeColor=#23445D;" edge="1" source="nAfZ405JJpA0r1wolxKX-260" target="nAfZ405JJpA0r1wolxKX-255" parent="1">
          <mxGeometry width="100" height="100" relative="1" as="geometry">
            <mxPoint x="1640" y="330.0000000000001" as="sourcePoint" />
            <mxPoint x="1640" y="750" as="targetPoint" />
            <Array as="points">
              <mxPoint x="1630" y="550" />
            </Array>
          </mxGeometry>
        </mxCell>
        <mxCell id="nAfZ405JJpA0r1wolxKX-253" value="" style="edgeStyle=elbowEdgeStyle;elbow=horizontal;rounded=0;fontColor=#000000;endArrow=none;endFill=0;strokeWidth=8;strokeColor=#23445D;" edge="1" source="nAfZ405JJpA0r1wolxKX-260" target="nAfZ405JJpA0r1wolxKX-256" parent="1">
          <mxGeometry width="100" height="100" relative="1" as="geometry">
            <mxPoint x="1640" y="330.0000000000001" as="sourcePoint" />
            <mxPoint x="1640" y="670" as="targetPoint" />
            <Array as="points">
              <mxPoint x="1630" y="500" />
            </Array>
          </mxGeometry>
        </mxCell>
        <mxCell id="nAfZ405JJpA0r1wolxKX-254" value="" style="edgeStyle=elbowEdgeStyle;elbow=horizontal;rounded=0;fontColor=#000000;endArrow=none;endFill=0;strokeWidth=8;strokeColor=#23445D;" edge="1" source="nAfZ405JJpA0r1wolxKX-260" target="nAfZ405JJpA0r1wolxKX-257" parent="1">
          <mxGeometry width="100" height="100" relative="1" as="geometry">
            <mxPoint x="1640" y="330.0000000000001" as="sourcePoint" />
            <mxPoint x="1639.9999999999998" y="590" as="targetPoint" />
            <Array as="points">
              <mxPoint x="1630" y="470.0000000000001" />
            </Array>
          </mxGeometry>
        </mxCell>
        <mxCell id="nAfZ405JJpA0r1wolxKX-255" value="Jump to detailed &#xa;view" style="whiteSpace=wrap;rounded=1;fillColor=#999999;strokeColor=none;shadow=1;fontColor=#FFFFFF;fontStyle=0" vertex="1" parent="1">
          <mxGeometry x="1650" y="720.0000000000002" width="120" height="60" as="geometry" />
        </mxCell>
        <mxCell id="nAfZ405JJpA0r1wolxKX-256" value="Remove" style="whiteSpace=wrap;rounded=1;fillColor=#999999;strokeColor=none;shadow=1;fontColor=#FFFFFF;fontStyle=0" vertex="1" parent="1">
          <mxGeometry x="1650" y="640.0000000000002" width="120" height="60" as="geometry" />
        </mxCell>
        <mxCell id="nAfZ405JJpA0r1wolxKX-257" value="Edit" style="whiteSpace=wrap;rounded=1;fillColor=#999999;strokeColor=none;shadow=1;fontColor=#FFFFFF;fontStyle=0" vertex="1" parent="1">
          <mxGeometry x="1649.9999999999998" y="560.0000000000002" width="120" height="60" as="geometry" />
        </mxCell>
        <mxCell id="nAfZ405JJpA0r1wolxKX-258" value="Add" style="whiteSpace=wrap;rounded=1;fillColor=#999999;strokeColor=none;shadow=1;fontColor=#FFFFFF;fontStyle=0" vertex="1" parent="1">
          <mxGeometry x="1650" y="480.0000000000002" width="120" height="60" as="geometry" />
        </mxCell>
        <mxCell id="nAfZ405JJpA0r1wolxKX-259" value="Mark significant&#xa; days" style="whiteSpace=wrap;rounded=1;fillColor=#999999;strokeColor=none;shadow=1;fontColor=#FFFFFF;fontStyle=0" vertex="1" parent="1">
          <mxGeometry x="1649.9999999999998" y="400.0000000000002" width="120" height="60" as="geometry" />
        </mxCell>
        <mxCell id="nAfZ405JJpA0r1wolxKX-260" value="Weekly" style="whiteSpace=wrap;rounded=1;fillColor=#12AAB5;strokeColor=none;shadow=1;fontColor=#FFFFFF;" vertex="1" parent="1">
          <mxGeometry x="1649.9999999999998" y="300.0000000000002" width="120" height="60" as="geometry" />
        </mxCell>
        <mxCell id="nAfZ405JJpA0r1wolxKX-261" value="" style="edgeStyle=elbowEdgeStyle;elbow=vertical;rounded=0;fontColor=#000000;endArrow=none;endFill=0;strokeWidth=8;strokeColor=#23445D;" edge="1" parent="1">
          <mxGeometry width="100" height="100" relative="1" as="geometry">
            <mxPoint x="1510" y="265" as="sourcePoint" />
            <mxPoint x="1720" y="300.0000000000002" as="targetPoint" />
            <Array as="points">
              <mxPoint x="1630" y="265" />
            </Array>
          </mxGeometry>
        </mxCell>
        <mxCell id="nAfZ405JJpA0r1wolxKX-263" value="" style="edgeStyle=elbowEdgeStyle;elbow=horizontal;rounded=0;fontColor=#000000;endArrow=none;endFill=0;strokeWidth=8;strokeColor=#23445D;" edge="1" parent="1" source="nAfZ405JJpA0r1wolxKX-273" target="nAfZ405JJpA0r1wolxKX-272">
          <mxGeometry width="100" height="100" relative="1" as="geometry">
            <mxPoint x="1820" y="330.00000000000057" as="sourcePoint" />
            <mxPoint x="1829.9999999999995" y="430.0000000000001" as="targetPoint" />
            <Array as="points">
              <mxPoint x="1820" y="380.0000000000001" />
            </Array>
          </mxGeometry>
        </mxCell>
        <mxCell id="nAfZ405JJpA0r1wolxKX-264" value="" style="edgeStyle=elbowEdgeStyle;elbow=horizontal;rounded=0;fontColor=#000000;endArrow=none;endFill=0;strokeWidth=8;strokeColor=#23445D;" edge="1" parent="1" source="nAfZ405JJpA0r1wolxKX-273" target="nAfZ405JJpA0r1wolxKX-271">
          <mxGeometry width="100" height="100" relative="1" as="geometry">
            <mxPoint x="1830" y="330.0000000000001" as="sourcePoint" />
            <mxPoint x="1830" y="510" as="targetPoint" />
            <Array as="points">
              <mxPoint x="1820" y="420.0000000000001" />
            </Array>
          </mxGeometry>
        </mxCell>
        <mxCell id="nAfZ405JJpA0r1wolxKX-265" value="" style="edgeStyle=elbowEdgeStyle;elbow=horizontal;rounded=0;fontColor=#000000;endArrow=none;endFill=0;strokeWidth=8;strokeColor=#23445D;" edge="1" parent="1" source="nAfZ405JJpA0r1wolxKX-273" target="nAfZ405JJpA0r1wolxKX-268">
          <mxGeometry width="100" height="100" relative="1" as="geometry">
            <mxPoint x="1830" y="330.0000000000001" as="sourcePoint" />
            <mxPoint x="1830" y="750" as="targetPoint" />
            <Array as="points">
              <mxPoint x="1820" y="550" />
            </Array>
          </mxGeometry>
        </mxCell>
        <mxCell id="nAfZ405JJpA0r1wolxKX-266" value="" style="edgeStyle=elbowEdgeStyle;elbow=horizontal;rounded=0;fontColor=#000000;endArrow=none;endFill=0;strokeWidth=8;strokeColor=#23445D;" edge="1" parent="1" source="nAfZ405JJpA0r1wolxKX-273" target="nAfZ405JJpA0r1wolxKX-269">
          <mxGeometry width="100" height="100" relative="1" as="geometry">
            <mxPoint x="1830" y="330.0000000000001" as="sourcePoint" />
            <mxPoint x="1830" y="670" as="targetPoint" />
            <Array as="points">
              <mxPoint x="1820" y="500" />
            </Array>
          </mxGeometry>
        </mxCell>
        <mxCell id="nAfZ405JJpA0r1wolxKX-267" value="" style="edgeStyle=elbowEdgeStyle;elbow=horizontal;rounded=0;fontColor=#000000;endArrow=none;endFill=0;strokeWidth=8;strokeColor=#23445D;" edge="1" parent="1" source="nAfZ405JJpA0r1wolxKX-273" target="nAfZ405JJpA0r1wolxKX-270">
          <mxGeometry width="100" height="100" relative="1" as="geometry">
            <mxPoint x="1830" y="330.0000000000001" as="sourcePoint" />
            <mxPoint x="1830" y="590" as="targetPoint" />
            <Array as="points">
              <mxPoint x="1820" y="470.0000000000001" />
            </Array>
          </mxGeometry>
        </mxCell>
        <mxCell id="nAfZ405JJpA0r1wolxKX-268" value="Jump to detailed &#xa;view" style="whiteSpace=wrap;rounded=1;fillColor=#999999;strokeColor=none;shadow=1;fontColor=#FFFFFF;fontStyle=0" vertex="1" parent="1">
          <mxGeometry x="1840" y="720.0000000000002" width="120" height="60" as="geometry" />
        </mxCell>
        <mxCell id="nAfZ405JJpA0r1wolxKX-269" value="Remove" style="whiteSpace=wrap;rounded=1;fillColor=#999999;strokeColor=none;shadow=1;fontColor=#FFFFFF;fontStyle=0" vertex="1" parent="1">
          <mxGeometry x="1840" y="640.0000000000002" width="120" height="60" as="geometry" />
        </mxCell>
        <mxCell id="nAfZ405JJpA0r1wolxKX-270" value="Edit" style="whiteSpace=wrap;rounded=1;fillColor=#999999;strokeColor=none;shadow=1;fontColor=#FFFFFF;fontStyle=0" vertex="1" parent="1">
          <mxGeometry x="1840" y="560.0000000000002" width="120" height="60" as="geometry" />
        </mxCell>
        <mxCell id="nAfZ405JJpA0r1wolxKX-271" value="Add" style="whiteSpace=wrap;rounded=1;fillColor=#999999;strokeColor=none;shadow=1;fontColor=#FFFFFF;fontStyle=0" vertex="1" parent="1">
          <mxGeometry x="1840" y="480.0000000000002" width="120" height="60" as="geometry" />
        </mxCell>
        <mxCell id="nAfZ405JJpA0r1wolxKX-272" value="Mark significant&#xa; days" style="whiteSpace=wrap;rounded=1;fillColor=#999999;strokeColor=none;shadow=1;fontColor=#FFFFFF;fontStyle=0" vertex="1" parent="1">
          <mxGeometry x="1840" y="400.0000000000002" width="120" height="60" as="geometry" />
        </mxCell>
        <mxCell id="nAfZ405JJpA0r1wolxKX-273" value="Daily" style="whiteSpace=wrap;rounded=1;fillColor=#12AAB5;strokeColor=none;shadow=1;fontColor=#FFFFFF;" vertex="1" parent="1">
          <mxGeometry x="1840" y="300.0000000000002" width="120" height="60" as="geometry" />
        </mxCell>
        <mxCell id="nAfZ405JJpA0r1wolxKX-274" value="" style="edgeStyle=elbowEdgeStyle;elbow=vertical;rounded=0;fontColor=#000000;endArrow=none;endFill=0;strokeWidth=8;strokeColor=#23445D;" edge="1" parent="1">
          <mxGeometry width="100" height="100" relative="1" as="geometry">
            <mxPoint x="1690" y="265" as="sourcePoint" />
            <mxPoint x="1900" y="300.0000000000002" as="targetPoint" />
            <Array as="points">
              <mxPoint x="1810" y="265" />
            </Array>
          </mxGeometry>
        </mxCell>
        <mxCell id="nAfZ405JJpA0r1wolxKX-278" value="" style="edgeStyle=elbowEdgeStyle;elbow=vertical;rounded=0;fontColor=#000000;endArrow=none;endFill=0;strokeWidth=8;strokeColor=#23445D;" edge="1" parent="1">
          <mxGeometry width="100" height="100" relative="1" as="geometry">
            <mxPoint x="810" y="265" as="sourcePoint" />
            <mxPoint x="1150" y="300" as="targetPoint" />
            <Array as="points">
              <mxPoint x="1070" y="265" />
            </Array>
          </mxGeometry>
        </mxCell>
        <mxCell id="nAfZ405JJpA0r1wolxKX-287" value="Habits" style="whiteSpace=wrap;rounded=1;fillColor=#12AAB5;strokeColor=none;shadow=1;fontColor=#FFFFFF;" vertex="1" parent="1">
          <mxGeometry x="939.9999999999998" y="300.0000000000001" width="120" height="60" as="geometry" />
        </mxCell>
        <mxCell id="nAfZ405JJpA0r1wolxKX-288" value="Create" style="whiteSpace=wrap;rounded=1;fillColor=#999999;strokeColor=none;shadow=1;fontColor=#FFFFFF;fontStyle=0" vertex="1" parent="1">
          <mxGeometry x="939.9999999999993" y="391.0000000000001" width="120" height="60" as="geometry" />
        </mxCell>
        <mxCell id="nAfZ405JJpA0r1wolxKX-289" value="Read" style="whiteSpace=wrap;rounded=1;fillColor=#999999;strokeColor=none;shadow=1;fontColor=#FFFFFF;fontStyle=0" vertex="1" parent="1">
          <mxGeometry x="939.9999999999995" y="480.0000000000001" width="120" height="60" as="geometry" />
        </mxCell>
        <mxCell id="nAfZ405JJpA0r1wolxKX-290" value="Update" style="whiteSpace=wrap;rounded=1;fillColor=#999999;strokeColor=none;shadow=1;fontColor=#FFFFFF;fontStyle=0" vertex="1" parent="1">
          <mxGeometry x="939.9999999999995" y="560.0000000000001" width="120" height="60" as="geometry" />
        </mxCell>
        <mxCell id="nAfZ405JJpA0r1wolxKX-291" value="Delete" style="whiteSpace=wrap;rounded=1;fillColor=#999999;strokeColor=none;shadow=1;fontColor=#FFFFFF;fontStyle=0" vertex="1" parent="1">
          <mxGeometry x="939.9999999999997" y="640.0000000000001" width="120" height="60" as="geometry" />
        </mxCell>
        <mxCell id="nAfZ405JJpA0r1wolxKX-292" value="" style="edgeStyle=elbowEdgeStyle;elbow=horizontal;rounded=0;fontColor=#000000;endArrow=none;endFill=0;strokeWidth=8;strokeColor=#23445D;" edge="1" parent="1" source="nAfZ405JJpA0r1wolxKX-287" target="nAfZ405JJpA0r1wolxKX-288">
          <mxGeometry width="100" height="100" relative="1" as="geometry">
            <mxPoint x="910" y="330.00000000000045" as="sourcePoint" />
            <mxPoint x="919.9999999999995" y="430" as="targetPoint" />
            <Array as="points">
              <mxPoint x="920" y="380" />
            </Array>
          </mxGeometry>
        </mxCell>
        <mxCell id="nAfZ405JJpA0r1wolxKX-293" value="" style="edgeStyle=elbowEdgeStyle;elbow=horizontal;rounded=0;fontColor=#000000;endArrow=none;endFill=0;strokeWidth=8;strokeColor=#23445D;" edge="1" parent="1" source="nAfZ405JJpA0r1wolxKX-287" target="nAfZ405JJpA0r1wolxKX-289">
          <mxGeometry width="100" height="100" relative="1" as="geometry">
            <mxPoint x="920" y="330" as="sourcePoint" />
            <mxPoint x="919.9999999999998" y="510" as="targetPoint" />
            <Array as="points">
              <mxPoint x="920" y="420" />
            </Array>
          </mxGeometry>
        </mxCell>
        <mxCell id="nAfZ405JJpA0r1wolxKX-294" value="" style="edgeStyle=elbowEdgeStyle;elbow=horizontal;rounded=0;fontColor=#000000;endArrow=none;endFill=0;strokeWidth=8;strokeColor=#23445D;" edge="1" parent="1" source="nAfZ405JJpA0r1wolxKX-287" target="nAfZ405JJpA0r1wolxKX-291">
          <mxGeometry width="100" height="100" relative="1" as="geometry">
            <mxPoint x="920" y="330" as="sourcePoint" />
            <mxPoint x="920" y="670" as="targetPoint" />
            <Array as="points">
              <mxPoint x="920" y="500" />
            </Array>
          </mxGeometry>
        </mxCell>
        <mxCell id="nAfZ405JJpA0r1wolxKX-295" value="" style="edgeStyle=elbowEdgeStyle;elbow=horizontal;rounded=0;fontColor=#000000;endArrow=none;endFill=0;strokeWidth=8;strokeColor=#23445D;" edge="1" parent="1" source="nAfZ405JJpA0r1wolxKX-287" target="nAfZ405JJpA0r1wolxKX-290">
          <mxGeometry width="100" height="100" relative="1" as="geometry">
            <mxPoint x="920" y="330" as="sourcePoint" />
            <mxPoint x="919.9999999999998" y="590" as="targetPoint" />
            <Array as="points">
              <mxPoint x="920" y="470" />
            </Array>
          </mxGeometry>
        </mxCell>
        <mxCell id="nAfZ405JJpA0r1wolxKX-297" value="" style="edgeStyle=elbowEdgeStyle;elbow=vertical;rounded=0;fontColor=#000000;endArrow=none;endFill=0;strokeWidth=8;strokeColor=#23445D;" edge="1" parent="1">
          <mxGeometry width="100" height="100" relative="1" as="geometry">
            <mxPoint x="660" y="265" as="sourcePoint" />
            <mxPoint x="1000" y="300" as="targetPoint" />
            <Array as="points">
              <mxPoint x="920" y="265" />
            </Array>
          </mxGeometry>
        </mxCell>
        <mxCell id="nAfZ405JJpA0r1wolxKX-298" value="Logout" style="whiteSpace=wrap;rounded=1;fillColor=#12AAB5;strokeColor=none;shadow=1;fontColor=#FFFFFF;" vertex="1" parent="1">
          <mxGeometry x="370" y="300.0000000000001" width="120" height="60" as="geometry" />
        </mxCell>
        <mxCell id="nAfZ405JJpA0r1wolxKX-300" value="" style="edgeStyle=elbowEdgeStyle;elbow=vertical;rounded=0;fontColor=#000000;endArrow=none;endFill=0;strokeWidth=8;strokeColor=#23445D;" edge="1" parent="1">
          <mxGeometry width="100" height="100" relative="1" as="geometry">
            <mxPoint x="240" y="265" as="sourcePoint" />
            <mxPoint x="430" y="300" as="targetPoint" />
            <Array as="points">
              <mxPoint x="360" y="265" />
            </Array>
          </mxGeometry>
        </mxCell>
        <mxCell id="nAfZ405JJpA0r1wolxKX-313" value="" style="edgeStyle=elbowEdgeStyle;elbow=horizontal;rounded=0;fontColor=#000000;endArrow=none;endFill=0;strokeWidth=8;strokeColor=#23445D;" edge="1" parent="1" source="nAfZ405JJpA0r1wolxKX-323" target="nAfZ405JJpA0r1wolxKX-322">
          <mxGeometry width="100" height="100" relative="1" as="geometry">
            <mxPoint x="2000" y="330.00000000000057" as="sourcePoint" />
            <mxPoint x="2009.9999999999995" y="430.0000000000001" as="targetPoint" />
            <Array as="points">
              <mxPoint x="2000" y="380.0000000000001" />
            </Array>
          </mxGeometry>
        </mxCell>
        <mxCell id="nAfZ405JJpA0r1wolxKX-314" value="" style="edgeStyle=elbowEdgeStyle;elbow=horizontal;rounded=0;fontColor=#000000;endArrow=none;endFill=0;strokeWidth=8;strokeColor=#23445D;" edge="1" parent="1" source="nAfZ405JJpA0r1wolxKX-323" target="nAfZ405JJpA0r1wolxKX-321">
          <mxGeometry width="100" height="100" relative="1" as="geometry">
            <mxPoint x="2010" y="330.0000000000001" as="sourcePoint" />
            <mxPoint x="2010" y="510" as="targetPoint" />
            <Array as="points">
              <mxPoint x="2000" y="420.0000000000001" />
            </Array>
          </mxGeometry>
        </mxCell>
        <mxCell id="nAfZ405JJpA0r1wolxKX-315" value="" style="edgeStyle=elbowEdgeStyle;elbow=horizontal;rounded=0;fontColor=#000000;endArrow=none;endFill=0;strokeWidth=8;strokeColor=#23445D;" edge="1" parent="1" source="nAfZ405JJpA0r1wolxKX-323" target="nAfZ405JJpA0r1wolxKX-318">
          <mxGeometry width="100" height="100" relative="1" as="geometry">
            <mxPoint x="2010" y="330.0000000000001" as="sourcePoint" />
            <mxPoint x="2010" y="750" as="targetPoint" />
            <Array as="points">
              <mxPoint x="2000" y="550" />
            </Array>
          </mxGeometry>
        </mxCell>
        <mxCell id="nAfZ405JJpA0r1wolxKX-316" value="" style="edgeStyle=elbowEdgeStyle;elbow=horizontal;rounded=0;fontColor=#000000;endArrow=none;endFill=0;strokeWidth=8;strokeColor=#23445D;" edge="1" parent="1" source="nAfZ405JJpA0r1wolxKX-323" target="nAfZ405JJpA0r1wolxKX-319">
          <mxGeometry width="100" height="100" relative="1" as="geometry">
            <mxPoint x="2010" y="330.0000000000001" as="sourcePoint" />
            <mxPoint x="2010" y="670" as="targetPoint" />
            <Array as="points">
              <mxPoint x="2000" y="500" />
            </Array>
          </mxGeometry>
        </mxCell>
        <mxCell id="nAfZ405JJpA0r1wolxKX-317" value="" style="edgeStyle=elbowEdgeStyle;elbow=horizontal;rounded=0;fontColor=#000000;endArrow=none;endFill=0;strokeWidth=8;strokeColor=#23445D;" edge="1" parent="1" source="nAfZ405JJpA0r1wolxKX-323" target="nAfZ405JJpA0r1wolxKX-320">
          <mxGeometry width="100" height="100" relative="1" as="geometry">
            <mxPoint x="2010" y="330.0000000000001" as="sourcePoint" />
            <mxPoint x="2010" y="590" as="targetPoint" />
            <Array as="points">
              <mxPoint x="2000" y="470.0000000000001" />
            </Array>
          </mxGeometry>
        </mxCell>
        <mxCell id="nAfZ405JJpA0r1wolxKX-318" value="Jump to detailed &#xa;view" style="whiteSpace=wrap;rounded=1;fillColor=#999999;strokeColor=none;shadow=1;fontColor=#FFFFFF;fontStyle=0" vertex="1" parent="1">
          <mxGeometry x="2020" y="720.0000000000002" width="120" height="60" as="geometry" />
        </mxCell>
        <mxCell id="nAfZ405JJpA0r1wolxKX-319" value="Remove" style="whiteSpace=wrap;rounded=1;fillColor=#999999;strokeColor=none;shadow=1;fontColor=#FFFFFF;fontStyle=0" vertex="1" parent="1">
          <mxGeometry x="2020" y="640.0000000000002" width="120" height="60" as="geometry" />
        </mxCell>
        <mxCell id="nAfZ405JJpA0r1wolxKX-320" value="Edit" style="whiteSpace=wrap;rounded=1;fillColor=#999999;strokeColor=none;shadow=1;fontColor=#FFFFFF;fontStyle=0" vertex="1" parent="1">
          <mxGeometry x="2020" y="560.0000000000002" width="120" height="60" as="geometry" />
        </mxCell>
        <mxCell id="nAfZ405JJpA0r1wolxKX-321" value="Jump to daily view" style="whiteSpace=wrap;rounded=1;fillColor=#999999;strokeColor=none;shadow=1;fontColor=#FFFFFF;fontStyle=0" vertex="1" parent="1">
          <mxGeometry x="2020" y="480.0000000000002" width="120" height="60" as="geometry" />
        </mxCell>
        <mxCell id="nAfZ405JJpA0r1wolxKX-322" value="Mark significant&#xa; days" style="whiteSpace=wrap;rounded=1;fillColor=#999999;strokeColor=none;shadow=1;fontColor=#FFFFFF;fontStyle=0" vertex="1" parent="1">
          <mxGeometry x="2020" y="400.0000000000002" width="120" height="60" as="geometry" />
        </mxCell>
        <mxCell id="nAfZ405JJpA0r1wolxKX-323" value="Small" style="whiteSpace=wrap;rounded=1;fillColor=#12AAB5;strokeColor=none;shadow=1;fontColor=#FFFFFF;" vertex="1" parent="1">
          <mxGeometry x="2020" y="300.0000000000002" width="120" height="60" as="geometry" />
        </mxCell>
        <mxCell id="nAfZ405JJpA0r1wolxKX-324" value="" style="edgeStyle=elbowEdgeStyle;elbow=vertical;rounded=0;fontColor=#000000;endArrow=none;endFill=0;strokeWidth=8;strokeColor=#23445D;" edge="1" parent="1">
          <mxGeometry width="100" height="100" relative="1" as="geometry">
            <mxPoint x="1870" y="265" as="sourcePoint" />
            <mxPoint x="2080" y="300.0000000000002" as="targetPoint" />
            <Array as="points">
              <mxPoint x="1990" y="265" />
            </Array>
          </mxGeometry>
        </mxCell>
        <mxCell id="nAfZ405JJpA0r1wolxKX-325" value="Mark today" style="whiteSpace=wrap;rounded=1;fillColor=#999999;strokeColor=none;shadow=1;fontColor=#FFFFFF;fontStyle=0" vertex="1" parent="1">
          <mxGeometry x="1260" y="800.0000000000002" width="120" height="60" as="geometry" />
        </mxCell>
        <mxCell id="nAfZ405JJpA0r1wolxKX-327" value="" style="edgeStyle=elbowEdgeStyle;elbow=horizontal;rounded=0;fontColor=#000000;endArrow=none;endFill=0;strokeWidth=8;strokeColor=#23445D;" edge="1" parent="1">
          <mxGeometry width="100" height="100" relative="1" as="geometry">
            <mxPoint x="1260" y="750.0000000000002" as="sourcePoint" />
            <mxPoint x="1260" y="830" as="targetPoint" />
            <Array as="points">
              <mxPoint x="1240" y="800.0000000000001" />
            </Array>
          </mxGeometry>
        </mxCell>
        <mxCell id="nAfZ405JJpA0r1wolxKX-328" value="Mark today" style="whiteSpace=wrap;rounded=1;fillColor=#999999;strokeColor=none;shadow=1;fontColor=#FFFFFF;fontStyle=0" vertex="1" parent="1">
          <mxGeometry x="1460" y="800.0000000000002" width="120" height="60" as="geometry" />
        </mxCell>
        <mxCell id="nAfZ405JJpA0r1wolxKX-329" value="" style="edgeStyle=elbowEdgeStyle;elbow=horizontal;rounded=0;fontColor=#000000;endArrow=none;endFill=0;strokeWidth=8;strokeColor=#23445D;" edge="1" parent="1">
          <mxGeometry width="100" height="100" relative="1" as="geometry">
            <mxPoint x="1460" y="750.0000000000002" as="sourcePoint" />
            <mxPoint x="1460" y="830.0000000000002" as="targetPoint" />
            <Array as="points">
              <mxPoint x="1440" y="800.0000000000001" />
            </Array>
          </mxGeometry>
        </mxCell>
        <mxCell id="nAfZ405JJpA0r1wolxKX-330" value="Mark today" style="whiteSpace=wrap;rounded=1;fillColor=#999999;strokeColor=none;shadow=1;fontColor=#FFFFFF;fontStyle=0" vertex="1" parent="1">
          <mxGeometry x="1650" y="800.0000000000002" width="120" height="60" as="geometry" />
        </mxCell>
        <mxCell id="nAfZ405JJpA0r1wolxKX-331" value="" style="edgeStyle=elbowEdgeStyle;elbow=horizontal;rounded=0;fontColor=#000000;endArrow=none;endFill=0;strokeWidth=8;strokeColor=#23445D;" edge="1" parent="1">
          <mxGeometry width="100" height="100" relative="1" as="geometry">
            <mxPoint x="1650" y="750.0000000000002" as="sourcePoint" />
            <mxPoint x="1650" y="830.0000000000002" as="targetPoint" />
            <Array as="points">
              <mxPoint x="1630" y="800.0000000000001" />
            </Array>
          </mxGeometry>
        </mxCell>
        <mxCell id="nAfZ405JJpA0r1wolxKX-332" value="Mark today" style="whiteSpace=wrap;rounded=1;fillColor=#999999;strokeColor=none;shadow=1;fontColor=#FFFFFF;fontStyle=0" vertex="1" parent="1">
          <mxGeometry x="1840" y="800.0000000000002" width="120" height="60" as="geometry" />
        </mxCell>
        <mxCell id="nAfZ405JJpA0r1wolxKX-333" value="" style="edgeStyle=elbowEdgeStyle;elbow=horizontal;rounded=0;fontColor=#000000;endArrow=none;endFill=0;strokeWidth=8;strokeColor=#23445D;" edge="1" parent="1">
          <mxGeometry width="100" height="100" relative="1" as="geometry">
            <mxPoint x="1840" y="750.0000000000002" as="sourcePoint" />
            <mxPoint x="1840" y="830.0000000000002" as="targetPoint" />
            <Array as="points">
              <mxPoint x="1820" y="800.0000000000001" />
            </Array>
          </mxGeometry>
        </mxCell>
        <mxCell id="nAfZ405JJpA0r1wolxKX-334" value="Mark today" style="whiteSpace=wrap;rounded=1;fillColor=#999999;strokeColor=none;shadow=1;fontColor=#FFFFFF;fontStyle=0" vertex="1" parent="1">
          <mxGeometry x="2020" y="800.0000000000002" width="120" height="60" as="geometry" />
        </mxCell>
        <mxCell id="nAfZ405JJpA0r1wolxKX-335" value="" style="edgeStyle=elbowEdgeStyle;elbow=horizontal;rounded=0;fontColor=#000000;endArrow=none;endFill=0;strokeWidth=8;strokeColor=#23445D;" edge="1" parent="1">
          <mxGeometry width="100" height="100" relative="1" as="geometry">
            <mxPoint x="2020" y="750.0000000000002" as="sourcePoint" />
            <mxPoint x="2020" y="830.0000000000002" as="targetPoint" />
            <Array as="points">
              <mxPoint x="2000" y="800.0000000000001" />
            </Array>
          </mxGeometry>
        </mxCell>
      </root>
    </mxGraphModel>
  </diagram>
</mxfile>
